<?xml version="1.0" encoding="UTF-8" standalone="no"?>
<!-- Created with Inkscape (http://www.inkscape.org/) -->

<svg
   xmlns:dc="http://purl.org/dc/elements/1.1/"
   xmlns:cc="http://creativecommons.org/ns#"
   xmlns:rdf="http://www.w3.org/1999/02/22-rdf-syntax-ns#"
   xmlns:svg="http://www.w3.org/2000/svg"
   xmlns="http://www.w3.org/2000/svg"
   xmlns:sodipodi="http://sodipodi.sourceforge.net/DTD/sodipodi-0.dtd"
   xmlns:inkscape="http://www.inkscape.org/namespaces/inkscape"
   width="210mm"
   height="297mm"
   viewBox="0 0 210 297"
   version="1.1"
   id="svg8"
   inkscape:version="0.92.2 (5c3e80d, 2017-08-06)"
   sodipodi:docname="icon.svg">
  <defs
     id="defs2" />
  <sodipodi:namedview
     id="base"
     pagecolor="#ffffff"
     bordercolor="#666666"
     borderopacity="1.0"
     inkscape:pageopacity="0.0"
     inkscape:pageshadow="2"
     inkscape:zoom="1"
     inkscape:cx="213.18873"
     inkscape:cy="621.59303"
     inkscape:document-units="mm"
     inkscape:current-layer="layer1"
     showgrid="false"
     inkscape:window-width="1920"
     inkscape:window-height="1017"
     inkscape:window-x="-8"
     inkscape:window-y="-8"
     inkscape:window-maximized="1" />
  <metadata
     id="metadata5">
    <rdf:RDF>
      <cc:Work
         rdf:about="">
        <dc:format>image/svg+xml</dc:format>
        <dc:type
           rdf:resource="http://purl.org/dc/dcmitype/StillImage" />
        <dc:title></dc:title>
      </cc:Work>
    </rdf:RDF>
  </metadata>
  <g
     inkscape:label="Layer 1"
     inkscape:groupmode="layer"
     id="layer1"
     style="display:inline">
    <circle
       style="opacity:1;fill:#fffff0;fill-opacity:0;stroke:#ed6f60;stroke-width:8.612;stroke-miterlimit:4;stroke-dasharray:none;stroke-opacity:1"
       id="path26"
       cx="105"
       cy="138.38229"
       r="65.939774"
       inkscape:export-filename="C:\Users\boros\circle5876.png"
       inkscape:export-xdpi="188.1299"
       inkscape:export-ydpi="188.1299" />
    <g
       id="g3721"
       transform="matrix(0.31282191,0,0,-0.31282191,102.16235,80.89939)"
       style="fill:#3c3f43;fill-opacity:1;stroke:none;stroke-width:3.90048194;stroke-miterlimit:4;stroke-dasharray:none;stroke-opacity:1"
       inkscape:export-filename="C:\Users\boros\circle5876.png"
       inkscape:export-xdpi="188.1299"
       inkscape:export-ydpi="188.1299">
      <path
         d="m 0,0 -5.581,-0.128 2.142,-99.318 -10.639,0.116 -1.971,99.202 h -6.372 v -99.86 H -31.9 l -0.914,99.86 h -6.448 l -1.831,-99.86 -10.206,-0.031 2.258,99.891 -5.554,-0.016 -11.737,-84.711 c 0,0 -0.31,-3.16 -0.299,-4.416 0.128,-14.471 5.497,-22.926 13.665,-31.902 30.04,-33.011 9.862,-71.038 9.862,-79.559 v -154.44 -0.287 c 0,-8.905 7.182,-16.089 16.076,-16.089 8.928,0 16.109,7.184 16.109,16.089 0,0.097 0,0.19 -0.096,0.287 h 0.096 v 154.163 c 0,9.959 -16.45,51.841 12.054,81.774 0,0 0.042,0.099 0.108,0.169 5.206,5.578 10.537,12.741 11.367,27.072 0.044,0.754 0,2.67 0,2.67 z"
         style="fill:#3c3f43;fill-opacity:1;fill-rule:nonzero;stroke:none;stroke-width:3.90048194;stroke-miterlimit:4;stroke-dasharray:none;stroke-opacity:1"
         id="path3723"
         inkscape:connector-curvature="0" />
    </g>
    <g
       id="g3725"
       transform="matrix(-0.2945303,0.00289865,-0.00289865,-0.2945303,115.60394,145.05785)"
       style="fill:#000000;fill-opacity:1;stroke:none;stroke-width:4.81012869;stroke-miterlimit:4;stroke-dasharray:none;stroke-opacity:1"
       inkscape:export-filename="C:\Users\boros\circle5876.png"
       inkscape:export-xdpi="188.1299"
       inkscape:export-ydpi="188.1299">
      <path
         d="m 0,0 c 0.096,9.505 -0.191,221.8 -0.191,221.8 l -4.692,-0.508 c 0,0 -41.758,-0.694 -43.376,-185.085 -0.347,-39.619 16.979,-43.279 16.565,-49.516 -0.603,-9.077 0.671,-140.969 0.671,-140.969 l 0.095,0.096 c 0,-0.096 -0.095,-0.214 -0.095,-0.408 0,-8.495 6.99,-15.489 15.512,-15.489 8.617,0 15.607,6.994 15.511,15.489 0.096,0.097 0.096,0.312 0,0.312 l 0.096,0.096 c 0,0 0,105.522 -0.096,116.03 z"
         style="fill:#3c3f43;fill-opacity:1;fill-rule:nonzero;stroke:none;stroke-width:4.81012869;stroke-miterlimit:4;stroke-dasharray:none;stroke-opacity:1"
         id="path3727"
         inkscape:connector-curvature="0" />
    </g>
    <path
       id="path5868"
       d="M 73.159149,49.349957 V 59.984235 H 96.721375 V 71.894623 H 113.91543 V 59.984235 h 22.92542 V 49.349957 Z"
       style="opacity:1;fill:#ed6f60;fill-opacity:1;stroke:none;stroke-width:4.32865953;stroke-miterlimit:4;stroke-dasharray:none;stroke-opacity:1"
       inkscape:connector-curvature="0"
       inkscape:export-filename="C:\Users\boros\circle5876.png"
       inkscape:export-xdpi="188.1299"
       inkscape:export-ydpi="188.1299" />
    <path
       style="opacity:1;fill:#ed6f60;fill-opacity:1;stroke:none;stroke-width:2.36817503;stroke-miterlimit:4;stroke-dasharray:none;stroke-opacity:1"
       d="m 163.46026,72.330802 -7.61596,6.583685 4.87194,5.635801 -8.52987,7.373727 3.55517,4.11261 8.52987,-7.373728 4.74028,5.483489 7.61594,-6.58369 z"
       id="path5870"
       inkscape:connector-curvature="0"
       inkscape:export-filename="C:\Users\boros\circle5876.png"
       inkscape:export-xdpi="188.1299"
       inkscape:export-ydpi="188.1299" />
  </g>
</svg>
