<?xml version="1.0" encoding="UTF-8" standalone="no"?>
<!-- Created with Inkscape (http://www.inkscape.org/) -->

<svg
   xmlns:dc="http://purl.org/dc/elements/1.1/"
   xmlns:cc="http://creativecommons.org/ns#"
   xmlns:rdf="http://www.w3.org/1999/02/22-rdf-syntax-ns#"
   xmlns:svg="http://www.w3.org/2000/svg"
   xmlns="http://www.w3.org/2000/svg"
   xmlns:sodipodi="http://sodipodi.sourceforge.net/DTD/sodipodi-0.dtd"
   xmlns:inkscape="http://www.inkscape.org/namespaces/inkscape"
   width="210mm"
   height="297mm"
   viewBox="0 0 210 297"
   version="1.1"
   id="svg8"
   inkscape:version="0.92.2 (5c3e80d, 2017-08-06)"
   sodipodi:docname="noticiation icon.svg">
  <defs
     id="defs2" />
  <sodipodi:namedview
     id="base"
     pagecolor="#ffffff"
     bordercolor="#666666"
     borderopacity="1.0"
     inkscape:pageopacity="0.0"
     inkscape:pageshadow="2"
     inkscape:zoom="0.98994949"
     inkscape:cx="258.79314"
     inkscape:cy="492.46237"
     inkscape:document-units="mm"
     inkscape:current-layer="layer1"
     showgrid="false"
     inkscape:window-width="1920"
     inkscape:window-height="1017"
     inkscape:window-x="-8"
     inkscape:window-y="-8"
     inkscape:window-maximized="1" />
  <metadata
     id="metadata5">
    <rdf:RDF>
      <cc:Work
         rdf:about="">
        <dc:format>image/svg+xml</dc:format>
        <dc:type
           rdf:resource="http://purl.org/dc/dcmitype/StillImage" />
        <dc:title></dc:title>
      </cc:Work>
    </rdf:RDF>
  </metadata>
  <g
     inkscape:label="Layer 1"
     inkscape:groupmode="layer"
     id="layer1">
    <g
       id="g3721"
       transform="matrix(0.59691425,0,0,-0.59691425,123.28063,105.12925)"
       style="fill:#3c3f43;fill-opacity:1;stroke:none;stroke-width:3.90048194;stroke-miterlimit:4;stroke-dasharray:none;stroke-opacity:1"
       inkscape:export-filename="C:\Users\boros\circle5876.png"
       inkscape:export-xdpi="188.1299"
       inkscape:export-ydpi="188.1299">
      <path
         style="fill:#3c3f43;fill-opacity:1;fill-rule:nonzero;stroke:none;stroke-width:8.79969692;stroke-miterlimit:4;stroke-dasharray:none;stroke-opacity:1"
         d="M 465.94336 397.33984 L 453.35156 397.62695 L 458.18359 621.69531 L 434.18164 621.43359 L 429.73438 397.62695 L 415.35938 397.62695 L 415.35938 622.91797 L 393.97461 622.91797 L 391.91211 397.62695 L 377.36523 397.62695 L 373.23438 622.91797 L 350.20898 622.98633 L 355.30273 397.62695 L 342.77344 397.66406 L 316.29492 588.77539 C 316.29492 588.77539 315.59432 595.90468 315.61914 598.73828 C 315.90792 631.38564 328.02177 650.4606 346.44922 670.71094 C 403.14809 733.01741 380.60518 803.09493 371.70703 835.63672 L 439.15234 835.63672 C 432.27889 799.8985 414.04096 723.5332 468.50391 666.33984 C 468.50391 666.33984 468.59719 666.11691 468.74609 665.95898 C 480.49111 653.37472 492.5181 637.21432 494.39062 604.88281 C 494.48989 603.18175 494.39062 598.85938 494.39062 598.85938 L 465.94336 397.33984 z "
         transform="matrix(0.44325183,0,0,-0.44325183,-206.52988,176.12119)"
         id="path3723" />
    </g>
    <path
       style="opacity:1;fill:#ffffff;fill-opacity:0;stroke:#ed6f60;stroke-width:8.61200047;stroke-miterlimit:4;stroke-dasharray:none;stroke-opacity:1"
       d="M 172.59409,156.71471 A 65.939774,65.939774 0 0 1 106.65431,222.65448 65.939774,65.939774 0 0 1 40.714539,156.71471 65.939774,65.939774 0 0 1 106.65431,90.774933 65.939774,65.939774 0 0 1 172.59409,156.71471 Z"
       id="path26" />
    <path
       id="path5868"
       d="M 74.813459,67.682368 V 78.316646 H 98.375685 V 90.227034 H 115.56974 V 78.316646 h 22.92542 V 67.682368 Z"
       style="opacity:1;fill:#ed6f60;fill-opacity:1;stroke:none;stroke-width:4.32865953;stroke-miterlimit:4;stroke-dasharray:none;stroke-opacity:1"
       inkscape:connector-curvature="0"
       inkscape:export-filename="C:\Users\boros\circle5876.png"
       inkscape:export-xdpi="188.1299"
       inkscape:export-ydpi="188.1299" />
    <path
       style="opacity:1;fill:#ed6f60;fill-opacity:1;stroke:none;stroke-width:2.36817503;stroke-miterlimit:4;stroke-dasharray:none;stroke-opacity:1"
       d="m 165.11457,90.663213 -7.61596,6.583685 4.87194,5.635802 -8.52987,7.37373 3.55517,4.11261 8.52987,-7.37373 4.74028,5.48349 7.61594,-6.58369 z"
       id="path5870"
       inkscape:connector-curvature="0"
       inkscape:export-filename="C:\Users\boros\circle5876.png"
       inkscape:export-xdpi="188.1299"
       inkscape:export-ydpi="188.1299" />
  </g>
</svg>
