<?xml version="1.0" encoding="UTF-8" standalone="no"?>
<!-- Created with Inkscape (http://www.inkscape.org/) -->

<svg
   xmlns:dc="http://purl.org/dc/elements/1.1/"
   xmlns:cc="http://creativecommons.org/ns#"
   xmlns:rdf="http://www.w3.org/1999/02/22-rdf-syntax-ns#"
   xmlns:svg="http://www.w3.org/2000/svg"
   xmlns="http://www.w3.org/2000/svg"
   xmlns:sodipodi="http://sodipodi.sourceforge.net/DTD/sodipodi-0.dtd"
   xmlns:inkscape="http://www.inkscape.org/namespaces/inkscape"
   width="48"
   height="48"
   id="svg4192"
   version="1.1"
   inkscape:version="0.91 r13725"
   viewBox="0 0 48 48"
   sodipodi:docname="logo_center.svg"
   inkscape:export-filename="C:\Users\boros\Desktop\Android\Assets\Logo\mipmap-hdpi\logo.png"
   inkscape:export-xdpi="135"
   inkscape:export-ydpi="135">
  <defs
     id="defs4194" />
  <sodipodi:namedview
     id="base"
     pagecolor="#ffffff"
     bordercolor="#666666"
     borderopacity="1.0"
     inkscape:pageopacity="0.0"
     inkscape:pageshadow="2"
     inkscape:zoom="9.8994949"
     inkscape:cx="8.8982195"
     inkscape:cy="24"
     inkscape:current-layer="layer1"
     showgrid="true"
     inkscape:grid-bbox="true"
     inkscape:document-units="px"
     inkscape:window-width="1366"
     inkscape:window-height="705"
     inkscape:window-x="-8"
     inkscape:window-y="-8"
     inkscape:window-maximized="1" />
  <metadata
     id="metadata4197">
    <rdf:RDF>
      <cc:Work
         rdf:about="">
        <dc:format>image/svg+xml</dc:format>
        <dc:type
           rdf:resource="http://purl.org/dc/dcmitype/StillImage" />
        <dc:title></dc:title>
      </cc:Work>
    </rdf:RDF>
  </metadata>
  <g
     id="layer1"
     inkscape:label="Layer 1"
     inkscape:groupmode="layer">
    <path
       style="fill:#ea6c6d;fill-opacity:1;fill-rule:evenodd;stroke:#ea6c6d;stroke-width:0;stroke-linecap:butt;stroke-linejoin:miter;stroke-miterlimit:4;stroke-dasharray:none;stroke-opacity:1"
       d="M 24.562375,8.2448841 A 19.314557,14.324379 0 0 0 19.479658,8.773846 c 0.02958,0.1565427 0.03578,0.3138393 0.01173,0.4639347 -0.06926,0.4317835 -0.318448,0.8235063 -0.575741,1.1731463 -0.162287,0.220533 -0.451601,0.363271 -0.740872,0.47211 -0.351233,0.59656 -0.695108,0.741396 -1.287973,1.014378 1.88e-4,10e-4 7.31e-4,0.0013 0.0011,0.0023 0.01047,0.140897 -0.121644,0.268266 -0.234873,0.349283 -0.328554,0.235064 -0.72776,0.351407 -1.061679,0.578397 -0.373846,0.254128 1.521477,-0.643421 -0.0266,0.07149 -0.650294,0.2021 -1.294787,0.116851 -1.897161,-0.219033 -0.276624,-0.154245 -0.485932,-0.414811 -0.758354,-0.576687 -0.08587,-0.153587 -0.198098,-0.281967 -0.32097,-0.399858 -0.110655,-0.04528 -0.215137,-0.10063 -0.308514,-0.174545 A 19.314557,14.324379 0 0 0 5.2479457,22.569098 19.314557,14.324379 0 0 0 24.56253,36.89364 19.314557,14.324379 0 0 0 43.877113,22.569098 19.314557,14.324379 0 0 0 24.56253,8.2447434 Z m -8.82,1.6100826 a 19.314557,14.324379 0 0 0 -0.06043,0.021678 c -0.01166,0.063638 -0.01977,0.1261053 -7.31e-4,0.091836 0.02287,-0.041213 0.04049,-0.075236 0.06118,-0.1135113 z m -1.246503,0.7221393 c -0.01059,0.0072 -0.02239,0.01351 -0.03235,0.02111 -0.0087,0.0067 0.02202,-0.0073 0.02862,-0.01617 0.0014,-0.002 0.0022,-0.003 0.0038,-0.0049 z m 3.282787,0.442829 c -0.05489,0.01791 -0.115173,0.03719 -0.16346,0.05419 0.241262,-0.05886 0.227167,-0.05266 0.16346,-0.05419 z m -1.026879,0.940416 c -0.01025,0.0048 -0.01712,0.0078 -0.02752,0.01274 -0.16193,0.186558 -0.07124,0.07672 0.02752,-0.01274 z"
       id="path3336"
       inkscape:connector-curvature="0" />
    <rect
       style="fill:#ea6c6d;fill-opacity:1;stroke-width:0;stroke-miterlimit:4;stroke-dasharray:none"
       id="rect4142"
       width="7.1198602"
       height="8.2910004"
       x="28.146683"
       y="18.848333"
       transform="matrix(0.83517442,0.54998517,-0.5329927,0.84611984,0,0)"
       ry="1.4605385" />
    <rect
       y="45.765614"
       x="3.4139264"
       height="8.2847528"
       width="7.12532"
       id="rect4144"
       style="fill:#ea6c6d;fill-opacity:1;stroke-width:0;stroke-miterlimit:4;stroke-dasharray:none"
       transform="matrix(0.81406903,-0.58076813,0.56368088,0.82599265,0,0)"
       inkscape:transform-center-x="-0.27203782"
       inkscape:transform-center-y="0.27814362"
       ry="1.2682742" />
    <rect
       style="fill:#ea6c6d;fill-opacity:1;stroke-width:0;stroke-linejoin:round;stroke-miterlimit:4;stroke-dasharray:none"
       id="rect4150"
       width="8.8701038"
       height="10.205348"
       x="14.87536"
       y="-6.2895417"
       transform="matrix(0.81842992,0.57460636,-0.03819607,0.99927026,0,0)"
       ry="2.4416237" />
    <ellipse
       style="fill:#ffffff;stroke-width:0;stroke-miterlimit:4;stroke-dasharray:none"
       id="path4146"
       cx="15.313146"
       cy="17.979959"
       rx="1.9042522"
       ry="2.2251463" />
    <rect
       style="fill:#ea6c6d;fill-opacity:1;fill-rule:evenodd;stroke:#000000;stroke-width:0;stroke-linecap:butt;stroke-linejoin:round;stroke-miterlimit:4;stroke-dasharray:none;stroke-opacity:1"
       id="rect3338"
       width="11.42551"
       height="8.6224451"
       x="0.38217828"
       y="18.81439"
       ry="2.364217" />
    <rect
       style="fill:#ea6c6d;fill-opacity:1;stroke-width:0;stroke-linejoin:round;stroke-miterlimit:4;stroke-dasharray:none"
       id="rect4152"
       width="7.0800705"
       height="2.7787466"
       x="34.953239"
       y="30.575411"
       ry="1.2771659"
       transform="matrix(0.97653492,-0.21535912,0.20641268,0.97846502,0,0)" />
    <rect
       style="fill:#ffffff;fill-opacity:1;stroke:none;stroke-width:1.63675976;stroke-linejoin:round;stroke-miterlimit:4;stroke-dasharray:none;stroke-opacity:1"
       id="rect4164"
       width="15.711804"
       height="1.3137621"
       x="19.430679"
       y="12.705918"
       ry="0.65688103" />
  </g>
</svg>
