<?xml version="1.0" encoding="UTF-8" standalone="no"?>
<svg
   xmlns:dc="http://purl.org/dc/elements/1.1/"
   xmlns:cc="http://creativecommons.org/ns#"
   xmlns:rdf="http://www.w3.org/1999/02/22-rdf-syntax-ns#"
   xmlns:svg="http://www.w3.org/2000/svg"
   xmlns="http://www.w3.org/2000/svg"
   xmlns:xlink="http://www.w3.org/1999/xlink"
   xmlns:sodipodi="http://sodipodi.sourceforge.net/DTD/sodipodi-0.dtd"
   xmlns:inkscape="http://www.inkscape.org/namespaces/inkscape"
   version="1.1"
   viewBox="0 0 2000 2000"
   id="svg851"
   sodipodi:docname="logo.svg"
   inkscape:version="0.92.2 (5c3e80d, 2017-08-06)"
   inkscape:export-filename="C:\Users\boros\bitmap.png"
   inkscape:export-xdpi="188.13"
   inkscape:export-ydpi="188.13">
  <metadata
     id="metadata857">
    <rdf:RDF>
      <cc:Work
         rdf:about="">
        <dc:format>image/svg+xml</dc:format>
        <dc:type
           rdf:resource="http://purl.org/dc/dcmitype/StillImage" />
        <dc:title />
      </cc:Work>
    </rdf:RDF>
  </metadata>
  <defs
     id="defs855">
    <linearGradient
       gradientTransform="matrix(0.08439106,0,0,0.08439106,-57.596785,668.30222)"
       id="e"
       x1="571.31"
       x2="569.52002"
       y1="798.40997"
       y2="708.76001"
       gradientUnits="userSpaceOnUse"
       xlink:href="#a" />
    <linearGradient
       id="a">
      <stop
         stop-color="#eee"
         offset="0"
         id="stop9652" />
      <stop
         stop-color="#eee"
         stop-opacity="0"
         offset="1"
         id="stop9654" />
    </linearGradient>
    <radialGradient
       id="c"
       cx="598.69"
       cy="67.811996"
       r="300"
       gradientTransform="matrix(-0.00276381,0.16965978,-0.08774138,-0.00142959,-1.2741911,582.5609)"
       gradientUnits="userSpaceOnUse"
       xlink:href="#a" />
    <clipPath
       id="f">
      <path
         inkscape:connector-curvature="0"
         transform="matrix(0.0488,0,0,0.0488,1.2421,-1.9747)"
         d="m 889.24,347.81 a 300,300 0 1 1 -600,0 300,300 0 1 1 600,0 z"
         id="path9646" />
    </clipPath>
    <clipPath
       id="b">
      <path
         inkscape:connector-curvature="0"
         d="m 30,15 h 30 v 15 z m 0,0 V 30 H 0 Z m 0,0 H 0 V 0 Z m 0,0 V 0 h 30 z"
         id="path9649" />
    </clipPath>
    <radialGradient
       id="d"
       cx="691.64001"
       cy="89.207001"
       r="300"
       gradientTransform="matrix(0.03462778,0.11560885,-0.09436669,0.02824298,-28.848895,624.64177)"
       gradientUnits="userSpaceOnUse">
      <stop
         stop-color="#ededed"
         offset="0"
         id="stop9658" />
      <stop
         stop-color="#ededed"
         offset="1"
         id="stop9660" />
    </radialGradient>
  </defs>
  <sodipodi:namedview
     pagecolor="#ffffff"
     bordercolor="#666666"
     borderopacity="1"
     objecttolerance="10"
     gridtolerance="10"
     guidetolerance="10"
     inkscape:pageopacity="0"
     inkscape:pageshadow="2"
     inkscape:window-width="1920"
     inkscape:window-height="1017"
     id="namedview853"
     showgrid="false"
     inkscape:zoom="0.45254834"
     inkscape:cx="740.47375"
     inkscape:cy="1103.8978"
     inkscape:window-x="-8"
     inkscape:window-y="-8"
     inkscape:window-maximized="1"
     inkscape:current-layer="g847"
     inkscape:snap-nodes="false" />
  <g
     transform="translate(0 947.64)"
     id="g849">
    <g
       transform="matrix(3.4388 0 0 3.4388 151.94 -2688.9)"
       id="g847"
       inkscape:export-filename="C:\Users\boros\g847.png"
       inkscape:export-xdpi="188.13"
       inkscape:export-ydpi="188.13"
       fill-rule="evenodd">
      <rect
         x="143.19878"
         y="634.83881"
         width="229.26941"
         height="277.99643"
         ry="18.920185"
         id="rect839"
         style="fill:#ffffff;stroke:#004455;stroke-width:8.11753464;stroke-linecap:round;stroke-opacity:1"
         inkscape:export-filename="C:\Users\boros\g893.png"
         inkscape:export-xdpi="188.13"
         inkscape:export-ydpi="188.13" />
      <rect
         x="143.14"
         y="621.53"
         width="215.67"
         height="278.94"
         ry="16.483"
         id="rect841"
         style="fill:#1bbdd4;fill-opacity:1"
         inkscape:export-filename="C:\Users\boros\g893.png"
         inkscape:export-xdpi="188.13"
         inkscape:export-ydpi="188.13"
         stroke-linecap="round"
         stroke-width="8"
         stroke="#045"
         fill="#0a8" />
      <rect
         x="142.92581"
         y="621.41119"
         width="215.67"
         height="278.94"
         ry="16.483"
         id="rect841-1"
         style="fill:#1bbdd4;fill-opacity:1;stroke:#004455;stroke-width:8.00022697;stroke-linecap:round;stroke-miterlimit:4;stroke-dasharray:none;stroke-opacity:1"
         inkscape:export-filename="C:\Users\boros\g893.png"
         inkscape:export-xdpi="188.13"
         inkscape:export-ydpi="188.13" />
      <rect
         x="149.98283"
         y="626.16528"
         width="13.245287"
         height="268.69235"
         id="rect843"
         style="fill:#004455;stroke:#004455;stroke-width:7.66871262;stroke-linecap:round;stroke-opacity:1;fill-opacity:1"
         inkscape:export-filename="C:\Users\boros\g893.png"
         inkscape:export-xdpi="188.13"
         inkscape:export-ydpi="188.13" />
      <path
         d="m 297.76,617.79484 h 20.868 l 0.41502,65.573 -10.434,-13.822 -10.434,13.822 z"
         id="path845"
         inkscape:export-filename="C:\Users\boros\g893.png"
         inkscape:export-xdpi="188.13"
         inkscape:export-ydpi="188.13"
         inkscape:connector-curvature="0"
         style="fill:#004455" />
      <flowRoot
         xml:space="preserve"
         id="flowRoot859"
         style="font-style:normal;font-weight:normal;font-size:40px;line-height:1.25;font-family:sans-serif;letter-spacing:0px;word-spacing:0px;fill:#ffffff;fill-opacity:1;stroke:none"
         transform="matrix(3.8120728,0,0,3.1272259,-2767.1367,-1635.7664)"
         inkscape:export-filename="C:\Users\boros\g893.png"
         inkscape:export-xdpi="188.13"
         inkscape:export-ydpi="188.13"><flowRegion
           id="flowRegion861"
           style="fill:#ffffff;fill-opacity:1"><rect
             id="rect863"
             width="570.7547"
             height="231.13208"
             x="771.22644"
             y="742.9245"
             style="fill:#ffffff;fill-opacity:1" /></flowRegion><flowPara
           id="flowPara865"
           style="font-style:normal;font-variant:normal;font-weight:normal;font-stretch:normal;font-family:'Eras Bold ITC';-inkscape-font-specification:'Eras Bold ITC'">IV</flowPara></flowRoot>      <g
         transform="matrix(0.13499426,0,0,0.14265715,282.75205,805.88254)"
         id="g893"
         style="fill:#ffffff;fill-opacity:1"
         inkscape:export-filename="C:\Users\boros\g893.png"
         inkscape:export-xdpi="188.13"
         inkscape:export-ydpi="188.13">
        <g
           transform="matrix(1.2164,0,0,1.2164,-77.557,229.4)"
           id="g891"
           style="fill:#ffffff;fill-opacity:1">
          <path
             style="fill:#ffffff;fill-opacity:1"
             inkscape:connector-curvature="0"
             d="m 368.61,187.5 c 2.256,7.0542 3.4188,14.457 3.4341,21.863 0.0153,7.3918 -1.1124,14.785 -3.3307,21.836 l 14.76,18.532 c 6.0484,-12.536 9.2187,-26.45 9.198,-40.368 -0.0206,-13.899 -3.2231,-27.784 -9.2922,-40.288 l -14.769,18.425 m -17.193,-81.274 -58.014,72.196 h -24.495 v 61.882 h 24.495 l 58.014,72.196 V 106.23 m 59.497,28.363 -13.488,16.921 c 10.299,17.418 15.841,37.618 15.873,57.853 0.0323,20.303 -5.4836,40.588 -15.793,58.079 l 13.569,16.937 c 14.83,-21.997 22.899,-48.487 22.851,-75.016 -0.0475,-26.465 -8.1714,-52.862 -23.012,-74.774 m 26.719,-33.358 -13.182,16.518 c 19.39,26.32 30.103,58.924 30.103,91.614 0,32.691 -10.713,65.295 -30.103,91.614 l 13.263,16.76 c 24.082,-30.603 37.506,-69.432 37.468,-108.37 -0.0382,-38.871 -13.488,-77.603 -37.548,-108.13"
             id="path889" />
        </g>
      </g>
    </g>
  </g>
</svg>
